<svg width="32" height="32" viewBox="0 0 32 32" fill="none" xmlns="http://www.w3.org/2000/svg">
<path d="M25.6819 13.1054C29.8137 18.9239 26.6529 25.5885 25.1241 28.1882C24.8999 28.5518 24.5987 28.8621 24.2419 29.0974C23.885 29.3325 23.4811 29.4871 23.0582 29.5499C20.0625 30.0657 12.6046 30.6436 8.59673 24.8249C4.65084 19.3366 4.81611 9.68031 5.16732 5.07913C5.18116 4.73634 5.27631 4.40172 5.44497 4.10282C5.61364 3.80394 5.85095 3.54933 6.13739 3.35995C6.42382 3.17058 6.75119 3.05185 7.09256 3.01355C7.43393 2.97524 7.77954 3.01845 8.10091 3.13963C12.5426 4.41889 21.7979 7.617 25.6819 13.1054Z" stroke="white" stroke-width="3" stroke-linecap="round" stroke-linejoin="round"/>
<path d="M11.7576 11.1865C16.4896 16.7559 20.6428 22.7911 24.1531 29.1991" stroke="white" stroke-width="3" stroke-linecap="round" stroke-linejoin="round"/>
</svg>
