<svg width="32" height="32" viewBox="0 0 32 32" fill="none" xmlns="http://www.w3.org/2000/svg">
<path d="M24 10.0027C26.2091 10.0027 28 8.2118 28 6.00267C28 3.79354 26.2091 2.00269 24 2.00269C21.7909 2.00269 20 3.79354 20 6.00267C20 8.2118 21.7909 10.0027 24 10.0027Z" stroke="white" stroke-width="2" stroke-linecap="round" stroke-linejoin="round"/>
<path d="M30 20.0036V18.0035C30 14.6898 27.3138 12.0034 24 12.0034C21.7403 12.0034 19.7724 13.2525 18.7491 15.0979" stroke="white" stroke-width="2" stroke-linecap="round" stroke-linejoin="round"/>
<path d="M8.00011 10.0027C10.2092 10.0027 12.0001 8.2118 12.0001 6.00267C12.0001 3.79354 10.2092 2.00269 8.00011 2.00269C5.79098 2.00269 4.00012 3.79354 4.00012 6.00267C4.00012 8.2118 5.79098 10.0027 8.00011 10.0027Z" stroke="white" stroke-width="2" stroke-linecap="round" stroke-linejoin="round"/>
<path d="M1.99998 20.0036V18.0035C1.99998 14.6898 4.68633 12.0034 8.0001 12.0034C10.2598 12.0034 12.2277 13.2525 13.251 15.0979" stroke="white" stroke-width="2" stroke-linecap="round" stroke-linejoin="round"/>
<path d="M16.0022 21.9981C18.2114 21.9981 20.0022 20.2073 20.0022 17.9982C20.0022 15.789 18.2114 13.9982 16.0022 13.9982C13.7931 13.9982 12.0023 15.789 12.0023 17.9982C12.0023 20.2073 13.7931 21.9981 16.0022 21.9981Z" stroke="white" stroke-width="2" stroke-linecap="round" stroke-linejoin="round"/>
<path d="M22.0028 29.9979C22.0028 26.6841 19.3165 23.9979 16.0027 23.9979C12.6889 23.9979 10.0026 26.6841 10.0026 29.9979" stroke="white" stroke-width="2" stroke-linecap="round" stroke-linejoin="round"/>
</svg>
