<svg width="32" height="32" viewBox="0 0 32 32" fill="none" xmlns="http://www.w3.org/2000/svg">
<path d="M25.4063 22.2005C27.1002 23.8237 27.6207 24.9242 27.935 25.5425C28.0061 25.6839 28.032 25.8456 28.0089 26.0037C27.9859 26.1617 27.9151 26.3079 27.807 26.4205C26.2739 28.0482 25.2698 29.213 23.8064 29.3952C20.5353 29.8282 15.6657 27.103 10.8757 22.0526C6.06719 17.0247 3.47024 11.9116 3.88268 8.47851C4.05619 6.94041 5.16978 5.88464 6.72283 4.27337C6.82807 4.16047 6.9653 4.08637 7.11398 4.06214C7.26266 4.03792 7.41482 4.06487 7.54771 4.13897C8.13365 4.46899 9.18467 5.01255 10.7334 6.79705C12.3149 8.62485 12.8184 9.99869 12.9194 10.7812C12.9272 10.9244 12.9052 11.0677 12.8548 11.201C12.8045 11.3344 12.727 11.4546 12.6278 11.5532C12.0433 12.1655 10.705 13.4422 10.523 14.0978C10.2826 14.9012 10.7249 15.8942 11.5 17.0874C11.9836 17.8057 12.6477 18.63 13.3916 19.4125C14.1354 20.1935 14.9204 20.8908 15.6045 21.3986C16.7423 22.2109 17.688 22.6753 18.4532 22.423C19.0775 22.2318 20.2935 20.8281 20.878 20.2159C20.9711 20.1108 21.0852 20.0288 21.2121 19.9756C21.339 19.9224 21.4755 19.8994 21.6119 19.9082C22.3571 20.0128 23.6656 20.5429 25.4063 22.2005ZM19.3378 4.48243C20.0375 4.48243 20.6135 5.09021 20.6135 5.8264L20.6235 9.96136L27.2666 2.95478C27.3843 2.82972 27.5245 2.73043 27.679 2.66266C27.8336 2.59489 27.9994 2.56 28.1668 2.56C28.3343 2.56 28.5001 2.59489 28.6547 2.66266C28.8092 2.73043 28.9494 2.82972 29.0671 2.95478C29.3059 3.20666 29.44 3.54761 29.44 3.90303C29.44 4.25845 29.3059 4.59941 29.0671 4.85128L22.4339 11.8265H26.3023C27.0006 11.8265 27.5766 12.4343 27.5766 13.172C27.5774 13.347 27.5452 13.5205 27.4819 13.6824C27.4186 13.8443 27.3255 13.9915 27.2079 14.1156C27.0903 14.2396 26.9505 14.3381 26.7966 14.4052C26.6426 14.4724 26.4776 14.507 26.3109 14.507H19.5213C19.1332 14.5054 18.7617 14.3422 18.4881 14.0533C18.2145 13.7644 18.0613 13.3733 18.0621 12.9659L18.072 5.81744C18.072 5.07975 18.648 4.47198 19.3378 4.48243Z" fill="white"/>
</svg>
