<svg width="172" height="80" viewBox="0 0 172 80" fill="none" xmlns="http://www.w3.org/2000/svg">
<path fill-rule="evenodd" clip-rule="evenodd" d="M2.60502 45.6542C1.4335 45.6542 0.000415053 47.2187 0 49.4355C0.000619179 53.9357 3.19026 57.325 8.65913 57.325C19.2089 57.325 27.9317 48.7841 40.6292 30.0666C43.0287 26.5296 45.1574 23.1967 47.113 20.1349C50.734 14.4654 53.7614 9.72544 56.8152 6.34101C57.9777 7.89347 58.6004 9.71454 58.6004 11.7415C58.6004 19.0466 53.6549 25.7748 49.401 27.9231C48.4714 27.5269 47.5566 27.3245 46.7515 27.3245C45.5799 27.3245 45.1885 27.847 45.1885 28.3032C45.1885 28.8256 45.7732 29.2818 46.8152 29.2818C47.685 29.2818 48.5371 29.2133 49.3662 29.0828C50.6254 30.2597 51.5043 32.3349 51.5043 35.0898C51.5043 45.6542 41.8031 56.611 35.9424 56.611C33.5353 56.611 31.9723 54.6537 31.9723 51.9139C31.9723 43.3707 41.6735 35.8723 46.0349 35.0898C45.9712 34.8914 45.6436 34.6975 45.0588 34.8275C41.0842 35.61 31.3194 43.0445 31.3194 51.9139C31.3194 55.1076 33.0121 57.325 36.6591 57.3227C43.7575 57.3227 55.6723 48.0632 55.6723 37.825C55.6723 33.4979 53.4458 30.4179 50.9375 28.7551C57.4446 27.0586 62.1814 21.5021 62.1814 15.5854C62.1814 12.5882 60.9194 8.64216 57.6308 5.47069C60.6327 2.39366 63.713 0.654713 67.4552 0.654713C69.4283 0.654713 70.2349 1.0637 70.9774 1.44024L70.9788 1.44091L70.981 1.44204L71.1022 1.50333C71.1682 0.980927 69.5369 0.00228172 67.1298 0.00228172C63.2726 0.00228172 59.7962 1.24309 56.0609 4.13829C52.8123 1.71251 48.077 0 41.4118 0C21.4863 0 6.44543 15.7838 6.44543 27.8492C6.44543 33.655 9.63743 37.6311 15.4322 37.6311C26.892 37.6311 37.4395 25.9581 37.4395 14.3489C37.4395 9.91193 35.1598 6.5859 33.6627 6.52203C34.8981 7.95692 35.2895 9.65187 35.2895 11.8692C35.2895 24.3247 24.808 36.9764 15.4322 36.9764C10.1562 36.9764 7.09611 33.1941 7.09611 27.847C7.09611 15.9777 22.0073 0.652432 41.4118 0.654713C47.5221 0.654713 52.3497 2.16181 55.3136 4.73671C50.1022 9.04208 44.3157 16.557 36.2678 28.3716C34.6197 30.7876 33.0889 33.0861 31.6462 35.2522L31.6451 35.2538L31.6441 35.2554L31.644 35.2555C22.8849 48.4071 17.3785 56.6748 8.65913 56.6748C3.58105 56.6748 1.04201 53.2849 1.04201 51.1976C1.04201 50.0021 1.88078 49.4506 2.68004 48.9251C3.4074 48.4469 4.10205 47.9901 4.10205 47.0891C4.10205 46.2405 3.51735 45.6542 2.60502 45.6542ZM48.3457 28.3657C47.8391 28.1129 47.3002 27.9815 46.7515 27.9815C46.0372 27.9815 45.8392 28.1116 45.8392 28.3078C45.8392 28.4378 46.1668 28.634 46.8152 28.634C47.2973 28.634 47.8116 28.5416 48.3457 28.3657ZM77.223 33.9812C68.4979 33.9812 59.8388 43.6969 59.8388 51.8478C59.8388 55.4361 61.3995 57.195 63.2879 57.1972C66.5757 57.1972 70.8021 53.5931 74.2569 49.3422C73.8668 50.3578 73.6397 51.3482 73.6397 52.304L73.642 52.2994C73.642 55.2331 75.4644 57.1904 77.9397 57.1904C81.2877 57.1904 86.4349 51.8423 90.8622 46.7151L84.0543 56.9301H88.8577L88.873 56.937C95.3184 47.4151 104.696 34.6334 111.142 34.6334C112.182 34.6334 112.639 34.9573 112.639 35.806C112.639 37.3969 110.863 39.5607 108.831 42.0368C106.114 45.348 102.938 49.2177 102.938 53.0224H102.936C102.936 55.7621 104.305 57.197 106.453 57.197C110.719 57.197 116.717 51.6445 121.845 45.905C120.998 47.8454 120.519 49.8525 120.519 51.7839H120.517C120.517 55.3722 122.08 57.1972 123.969 57.1972C126.573 57.1972 130.329 54.4266 133.578 51.1255C134.259 51.913 135.267 52.3063 136.209 52.3063C141.059 52.3063 146.693 45.2723 149.964 41.1887L149.964 41.1886C150.339 40.721 150.682 40.2921 150.99 39.9169H150.144C149.884 40.2372 149.597 40.5963 149.287 40.9845C146.189 44.8656 140.767 51.6561 136.211 51.6561C135.724 51.6561 134.696 51.4745 134.026 50.6629C137.477 47.0519 140.247 42.944 140.247 41.1556C140.247 40.177 139.726 39.6546 138.88 39.6546C137.057 39.6546 132.76 44.087 132.76 48.7841C132.76 49.5051 132.931 50.1152 133.216 50.6147C130.69 53.4274 126.667 56.5471 123.971 56.5471C123.193 56.5471 122.606 56.0247 122.606 54.6537C122.606 49.1764 134.198 34.7636 138.818 34.7636C139.794 34.7636 140.445 35.4822 140.445 36.5247C140.445 37.2209 140.269 37.6085 140.134 37.9053C140.105 37.9704 140.077 38.0311 140.054 38.0897C140.836 38.0258 141.096 36.851 141.096 36.5247C141.096 34.8959 139.86 33.9812 138.036 33.9812C132.201 33.9812 126.452 38.141 123.208 43.3291C117.797 49.6402 110.897 56.5469 106.451 56.5469C105.147 56.5469 104.626 56.0906 104.626 55.112C104.626 53.5518 106.583 51.289 108.796 48.7312C111.672 45.4062 114.98 41.5827 114.98 38.1556C114.98 35.5459 113.549 33.981 111.14 33.981C107.15 33.981 102.23 38.466 97.5423 44.0938L105.008 33.0388C113.225 28.3464 128.396 16.1503 128.396 10.1102C128.396 8.80762 127.552 7.82898 125.728 7.82898C118.827 7.82898 106.976 22.5018 100.66 32.0237H100.658V32.0168L94.0417 41.9444C93.8035 42.227 93.559 42.5177 93.309 42.815L93.2994 42.8264L93.2931 42.8339L93.2918 42.8354C88.524 48.5045 81.7658 56.5402 77.9397 56.5402C76.8317 56.5402 76.1151 55.8217 76.1151 54.7791C76.1151 52.9519 78.1331 49.6258 80.8678 45.8436L89.5269 34.0405C87.3132 35.1492 85.4886 35.5415 83.3409 35.5415L79.7241 40.6386C80.2883 39.3109 80.6084 38.1566 80.6084 37.3072C80.6084 35.1537 79.5027 33.9812 77.223 33.9812ZM127.746 10.1102C127.746 15.453 114.189 26.6924 105.861 31.7772C111.058 24.1136 122.185 8.60916 126.312 8.60916C127.225 8.60916 127.746 9.19543 127.746 10.1102ZM78.0011 34.7614C79.2411 34.7614 79.9555 35.6738 79.9555 37.3049C79.9532 41.9358 69.6014 56.5448 63.2856 56.5425C62.5052 56.5425 61.9842 56.1501 61.9842 54.9776C61.9842 48.3917 73.8991 34.7614 78.0011 34.7614ZM148.06 52.6293C148.062 49.1561 151.63 45.122 154.495 41.8832C156.417 39.7107 158.022 37.896 158.022 36.8484C158.022 36.347 157.386 35.9224 156.602 35.3999C156.222 35.1462 155.807 34.8694 155.413 34.5496C154.137 36.1914 152.756 37.8234 151.578 39.2159L151.568 39.2287C151.369 39.4637 151.176 39.6919 150.99 39.9121H150.141L150.411 39.603L150.411 39.6028C152.241 37.5011 153.869 35.6307 154.878 34.0671C154.222 33.4035 153.725 32.5662 153.725 31.4351C153.725 29.2177 156.523 25.6955 158.477 25.6955C158.998 25.6955 159.52 26.2179 159.52 27.1304C159.52 28.7215 157.875 31.3177 155.867 33.9599C156.152 34.1893 156.477 34.4065 156.816 34.6331C158.238 35.5842 159.909 36.7009 159.909 39.5859C159.909 42.3838 156.934 45.5656 154.214 48.4743C151.925 50.9229 149.816 53.178 149.816 54.8473C149.816 55.8898 150.403 56.5422 151.313 56.5422C156.386 56.5422 164.292 47.3674 170.044 40.691L170.512 40.1479L170.715 39.9121H171.566C165.835 46.7603 157.046 57.1924 151.315 57.1924C149.43 57.1924 148.061 55.499 148.06 52.6293ZM54.9789 77.4134L57.5384 79.8999H57.5407H58.3825L55.741 77.4134H56.0277C56.6602 77.4134 57.1607 77.2651 57.5247 76.9731C57.8888 76.6811 58.0685 76.2659 58.0685 75.7139C58.0685 75.1618 57.8842 74.7352 57.5156 74.4341C57.1471 74.133 56.6511 73.9824 56.0254 73.9824H52.1782V79.8999H52.8198V77.4134H54.9789ZM52.8198 76.9161V74.5071H55.9845C56.4236 74.5071 56.774 74.612 57.0356 74.8242C57.2972 75.0363 57.4269 75.3329 57.4269 75.7161C57.4269 76.0994 57.2972 76.3937 57.0356 76.6035C56.774 76.8111 56.4236 76.9161 55.9845 76.9161H52.8198ZM60.5183 79.8999V73.9824H65.767V74.498H61.1599V76.6446H64.8319V77.1351H61.1599V79.3844H65.9353V79.8999H60.5183ZM68.9508 79.14C68.5186 78.8959 68.2865 78.556 68.2592 78.1225H68.2569L67.6472 78.1476C67.6927 78.743 67.9794 79.2038 68.5049 79.5209C69.0305 79.8403 69.7812 80 70.7527 80C71.6696 80 72.3863 79.8654 72.9005 79.5939C73.4169 79.3248 73.674 78.921 73.674 78.3849C73.674 77.9857 73.5216 77.664 73.2144 77.4176C72.9096 77.1736 72.4295 76.9819 71.7765 76.8473L69.9701 76.4573C69.0464 76.2542 68.5845 75.9006 68.5845 75.401C68.5845 75.0725 68.762 74.8193 69.1237 74.6391C69.4855 74.4589 69.9564 74.3676 70.5434 74.3676C71.2078 74.3676 71.747 74.4794 72.1633 74.7053C72.5797 74.9288 72.8049 75.2208 72.839 75.5835L73.4397 75.5584C73.3828 75.0292 73.0984 74.6163 72.5797 74.3197C72.0632 74.0255 71.3875 73.8772 70.5616 73.8772C69.7972 73.8772 69.1692 74.0072 68.6801 74.2673C68.1909 74.5273 67.9452 74.9129 67.9452 75.433C67.9452 76.1881 68.5436 76.6991 69.7426 76.9637L71.5991 77.3789C72.111 77.4906 72.4796 77.6321 72.7025 77.8009C72.9232 77.9697 73.0347 78.1773 73.0347 78.4259C73.0347 78.8001 72.8208 79.0738 72.3931 79.2472C71.9654 79.4206 71.4216 79.5095 70.7573 79.5095C69.986 79.5095 69.3831 79.3864 68.9508 79.14ZM76.0984 79.8999V73.9824H76.74V79.8999H76.0984ZM85.0265 74.79C84.4145 74.2516 83.5431 73.9824 82.4192 73.9824V73.9847H79.5912V79.9022H82.4192C83.5454 79.9022 84.4145 79.633 85.0265 79.0946C85.6363 78.5563 85.9457 77.8377 85.9457 76.9412C85.9457 76.0446 85.6408 75.3283 85.0265 74.79ZM84.5465 78.6977C84.0391 79.1425 83.3111 79.3661 82.3669 79.3661H80.2328V74.5139H82.3669C83.3134 74.5139 84.0391 74.7375 84.5465 75.1823C85.0538 75.6272 85.3064 76.2134 85.3064 76.9389C85.3064 77.6666 85.0538 78.2529 84.5465 78.6977ZM88.3962 73.9824H93.6449V74.498H89.0378V76.6446H92.7098V77.1351H89.0378V79.3844H93.8155V79.8999H88.3985H88.3962V73.9824ZM102.499 73.9824H101.876V79.5623L97.3526 73.9824H96.2378V79.8999H96.8702V74.32L101.395 79.8999H102.499V73.9824ZM111.005 77.9377L111.615 77.9787C111.513 78.581 111.194 79.0692 110.653 79.441C110.114 79.8129 109.383 79.9999 108.466 79.9999C107.345 79.9999 106.48 79.7148 105.866 79.1467C105.252 78.5787 104.947 77.8419 104.947 76.9408C104.947 76.042 105.247 75.3029 105.85 74.7348C106.453 74.1668 107.299 73.8817 108.391 73.8817C109.245 73.8817 109.959 74.0528 110.53 74.3972C111.101 74.7394 111.442 75.2071 111.556 75.7933L110.946 75.8458C110.855 75.4124 110.573 75.0633 110.1 74.801C109.624 74.5387 109.056 74.4086 108.391 74.4086C107.513 74.4086 106.826 74.6481 106.332 75.1272C105.836 75.6063 105.588 76.2131 105.588 76.9454C105.588 77.6776 105.841 78.2844 106.344 78.7635C106.847 79.2425 107.554 79.4821 108.466 79.4821C109.181 79.4821 109.761 79.3361 110.209 79.0464C110.655 78.7566 110.924 78.3871 111.008 77.9423L111.005 77.9377ZM119.216 73.9824H113.967V79.8999H113.97H119.387V79.3844H114.609V77.1351H118.281V76.6446H114.609V74.498H119.216V73.9824Z" fill="white"/>
</svg>
