<svg width="33" height="32" viewBox="0 0 33 32" fill="none" xmlns="http://www.w3.org/2000/svg">
<path d="M27.1 28C24.3222 28 21.5778 27.3947 18.8667 26.184C16.1556 24.9733 13.6889 23.2564 11.4667 21.0333C9.24445 18.8102 7.528 16.3436 6.31733 13.6333C5.10667 10.9231 4.50089 8.17867 4.5 5.4C4.5 5 4.63333 4.66667 4.9 4.4C5.16667 4.13333 5.5 4 5.9 4H11.3C11.6111 4 11.8889 4.10578 12.1333 4.31733C12.3778 4.52889 12.5222 4.77867 12.5667 5.06667L13.4333 9.73333C13.4778 10.0889 13.4667 10.3889 13.4 10.6333C13.3333 10.8778 13.2111 11.0889 13.0333 11.2667L9.8 14.5333C10.2444 15.3556 10.772 16.1498 11.3827 16.916C11.9933 17.6822 12.6658 18.4213 13.4 19.1333C14.0889 19.8222 14.8111 20.4613 15.5667 21.0507C16.3222 21.64 17.1222 22.1787 17.9667 22.6667L21.1 19.5333C21.3 19.3333 21.5613 19.1836 21.884 19.084C22.2067 18.9844 22.5231 18.9564 22.8333 19L27.4333 19.9333C27.7444 20.0222 28 20.1836 28.2 20.4173C28.4 20.6511 28.5 20.912 28.5 21.2V26.6C28.5 27 28.3667 27.3333 28.1 27.6C27.8333 27.8667 27.5 28 27.1 28Z" fill="white"/>
</svg>
