<svg width="24" height="24" viewBox="0 0 24 24" fill="none" xmlns="http://www.w3.org/2000/svg">
<path d="M13.0266 2C14.1516 2.003 14.7226 2.009 15.2156 2.023L15.4096 2.03C15.6336 2.038 15.8546 2.048 16.1216 2.06C17.1856 2.11 17.9116 2.278 18.5486 2.525C19.2086 2.779 19.7646 3.123 20.3206 3.678C20.8293 4.17773 21.2228 4.78247 21.4736 5.45C21.7206 6.087 21.8886 6.813 21.9386 7.878C21.9506 8.144 21.9606 8.365 21.9686 8.59L21.9746 8.784C21.9896 9.276 21.9956 9.847 21.9976 10.972L21.9986 11.718V13.028C22.001 13.7574 21.9934 14.4868 21.9756 15.216L21.9696 15.41C21.9616 15.635 21.9516 15.856 21.9396 16.122C21.8896 17.187 21.7196 17.912 21.4736 18.55C21.2228 19.2175 20.8293 19.8223 20.3206 20.322C19.8209 20.8307 19.2161 21.2242 18.5486 21.475C17.9116 21.722 17.1856 21.89 16.1216 21.94L15.4096 21.97L15.2156 21.976C14.7226 21.99 14.1516 21.997 13.0266 21.999L12.2806 22H10.9716C10.2419 22.0026 9.51214 21.9949 8.78262 21.977L8.58862 21.971C8.35123 21.962 8.11389 21.9517 7.87662 21.94C6.81262 21.89 6.08662 21.722 5.44862 21.475C4.78145 21.2241 4.17706 20.8306 3.67762 20.322C3.16856 19.8224 2.77472 19.2176 2.52362 18.55C2.27662 17.913 2.10862 17.187 2.05862 16.122L2.02862 15.41L2.02362 15.216C2.00518 14.4868 1.99685 13.7574 1.99862 13.028V10.972C1.99585 10.2426 2.00318 9.5132 2.02062 8.784L2.02762 8.59C2.03562 8.365 2.04562 8.144 2.05762 7.878C2.10762 6.813 2.27562 6.088 2.52262 5.45C2.77431 4.7822 3.16884 4.17744 3.67862 3.678C4.17777 3.16955 4.7818 2.77607 5.44862 2.525C6.08662 2.278 6.81162 2.11 7.87662 2.06C8.14262 2.048 8.36462 2.038 8.58862 2.03L8.78262 2.024C9.51181 2.00623 10.2412 1.99857 10.9706 2.001L13.0266 2ZM11.9986 7C10.6725 7 9.40076 7.52678 8.46308 8.46447C7.5254 9.40215 6.99862 10.6739 6.99862 12C6.99862 13.3261 7.5254 14.5979 8.46308 15.5355C9.40076 16.4732 10.6725 17 11.9986 17C13.3247 17 14.5965 16.4732 15.5341 15.5355C16.4718 14.5979 16.9986 13.3261 16.9986 12C16.9986 10.6739 16.4718 9.40215 15.5341 8.46447C14.5965 7.52678 13.3247 7 11.9986 7ZM11.9986 9C12.3926 8.99993 12.7827 9.07747 13.1467 9.22817C13.5107 9.37887 13.8415 9.5998 14.1201 9.87833C14.3987 10.1569 14.6197 10.4875 14.7706 10.8515C14.9214 11.2154 14.999 11.6055 14.9991 11.9995C14.9992 12.3935 14.9216 12.7836 14.7709 13.1476C14.6202 13.5116 14.3993 13.8423 14.1208 14.121C13.8423 14.3996 13.5116 14.6206 13.1476 14.7714C12.7837 14.9223 12.3936 14.9999 11.9996 15C11.204 15 10.4409 14.6839 9.8783 14.1213C9.31569 13.5587 8.99962 12.7956 8.99962 12C8.99962 11.2044 9.31569 10.4413 9.8783 9.87868C10.4409 9.31607 11.204 9 11.9996 9M17.2496 5.5C16.9181 5.5 16.6002 5.6317 16.3657 5.86612C16.1313 6.10054 15.9996 6.41848 15.9996 6.75C15.9996 7.08152 16.1313 7.39946 16.3657 7.63388C16.6002 7.8683 16.9181 8 17.2496 8C17.5811 8 17.8991 7.8683 18.1335 7.63388C18.3679 7.39946 18.4996 7.08152 18.4996 6.75C18.4996 6.41848 18.3679 6.10054 18.1335 5.86612C17.8991 5.6317 17.5811 5.5 17.2496 5.5Z" fill="#19203C"/>
</svg>
