<svg width="32" height="32" viewBox="0 0 32 32" fill="none" xmlns="http://www.w3.org/2000/svg">
<path d="M2.49299 15.2041C2.49299 15.2041 14.7063 10.0081 18.942 8.17852C20.5658 7.44673 26.0724 5.10482 26.0724 5.10482C26.0724 5.10482 28.6139 4.08032 28.4021 6.56849C28.3314 7.59309 27.7667 11.179 27.2019 15.0577C26.3547 20.5465 25.437 26.5474 25.437 26.5474C25.437 26.5474 25.2958 28.2307 24.0957 28.5234C22.8955 28.8161 20.9187 27.4989 20.5658 27.2061C20.2834 26.9866 15.271 23.6933 13.4355 22.0833C12.9413 21.6442 12.3766 20.7661 13.5061 19.7415C16.0476 17.3264 19.0832 14.3259 20.9187 12.4232C21.766 11.5449 22.6131 9.49584 19.0832 11.984C14.0709 15.57 9.12911 18.9364 9.12911 18.9364C9.12911 18.9364 7.99953 19.6682 5.88164 19.0096C3.76366 18.351 1.29277 17.4728 1.29277 17.4728C1.29277 17.4728 -0.401459 16.375 2.49299 15.2041Z" fill="white"/>
</svg>
