<svg width="24" height="24" viewBox="0 0 24 24" fill="none" xmlns="http://www.w3.org/2000/svg">
<path d="M1.81663 11.403C1.81663 11.403 10.9766 7.50607 14.1534 6.13386C15.3713 5.58502 19.5012 3.82858 19.5012 3.82858C19.5012 3.82858 21.4073 3.06021 21.2484 4.92634C21.1955 5.69479 20.7719 8.38422 20.3483 11.2933C19.7129 15.4098 19.0246 19.9105 19.0246 19.9105C19.0246 19.9105 18.9187 21.173 18.0186 21.3925C17.1185 21.6121 15.6359 20.6241 15.3713 20.4045C15.1594 20.2399 11.4002 17.7699 10.0235 16.5624C9.65287 16.2331 9.22931 15.5745 10.0764 14.8061C11.9826 12.9948 14.2593 10.7444 15.6359 9.31736C16.2713 8.65868 16.9067 7.12185 14.2593 8.98798C10.5001 11.6775 6.79372 14.2023 6.79372 14.2023C6.79372 14.2023 5.94653 14.7511 4.35812 14.2571C2.76963 13.7632 0.916461 13.1045 0.916461 13.1045C0.916461 13.1045 -0.35421 12.2812 1.81663 11.403Z" fill="#19203C"/>
</svg>
